<svg xmlns="http://www.w3.org/2000/svg" viewBox="0 0 32 32" fill="none">
  <defs>
    <linearGradient id="primaryGradient" x1="2" y1="2" x2="30" y2="30" gradientUnits="userSpaceOnUse">
      <stop stop-color="#F59E0B" />
      <stop offset="1" stop-color="#D97706" />
    </linearGradient>
  </defs>
  <rect width="32" height="32" rx="8" fill="url(#primaryGradient)" />
  <!-- Camera / Social Frame Icon with Sparkle -->
  <path d="M10 11C10 9.89543 10.8954 9 12 9H20C21.1046 9 22 9.89543 22 11V21C22 22.1046 21.1046 23 20 23H12C10.8954 23 10 22.1046 10 21V11Z" stroke="white" stroke-width="2" stroke-linejoin="round" />
  <circle cx="16" cy="16" r="3.5" stroke="white" stroke-width="1.8" />
  <circle cx="19.5" cy="12.5" r="1" fill="white" />
  <!-- Sparkle top-right -->
  <path d="M24 6L25 8L27 9L25 10L24 12L23 10L21 9L23 8L24 6Z" fill="#FEF3C7" />
</svg>
